<svg xmlns="http://www.w3.org/2000/svg" width="24" height="24" version="1.1">
 <defs>
  <style id="current-color-scheme" type="text/css">
   .ColorScheme-Text { color:#c0caf5; } .ColorScheme-Highlight { color:#4285f4; } .ColorScheme-NeutralText { color:#ff9e64; } .ColorScheme-PositiveText { color:#9ece6a; } .ColorScheme-NegativeText { color:#f7768e; }
 </style>
 </defs>
 <g transform="matrix(1.12 0 0 1.12 -1.44 -1.44)">
 <path style="stroke:currentColor;stroke-width:1.125;fill:none" class="ColorScheme-Text" d="m8 15a10 10 0 0 1 10 -10"/>
 <path style="stroke:currentColor;stroke-width:1.125;fill:none" class="ColorScheme-Text" d="m12 15a6 6 0 0 1 6 -6"/>
 <circle style="fill:currentColor" class="ColorScheme-Text" cx="16.5" cy="13.5" r="1.5"/>
 <rect style="fill:currentColor" class="ColorScheme-Text" width="3" height="4" x="15" y="16"/>
 <path style="fill:currentColor" class="ColorScheme-NegativeText error" d="M 9.9900509,12 C 9.3135615,12.001344 8.6274785,12.174748 7.9998165,12.537109 6.0868405,13.641449 5.4325559,16.087251 6.5369259,18 c 1.104371,1.912649 3.5500151,2.567231 5.4628911,1.462891 1.912976,-1.104339 2.567262,-3.548188 1.46289,-5.460938 -0.690232,-1.195406 -1.902854,-1.901671 -3.183594,-1.992187 -0.09605,-0.0068 -0.192421,-0.01 -0.2890621,-0.0098 z m -0.9902344,1 h 2.0000005 v 4 H 8.9998165 Z m 0,5 h 2.0000005 v 1 H 8.9998165 Z"/>
 </g>
</svg>
