<svg xmlns="http://www.w3.org/2000/svg" height="24" width="24" viewBox="0 0 24 24">
  <style id="current-color-scheme" type="text/css">
 .ColorScheme-Text { color:#232629; }
 .ColorScheme-Background { color:#eff0f1; }
 .ColorScheme-Highlight { color:#3daee9; }
 .ColorScheme-HighlightedText { color:#ffffff; }
 .ColorScheme-PositiveText { color:#27ae60; }
 .ColorScheme-NeutralText { color:#f67400; }
 .ColorScheme-NegativeText { color:#da4453; }
</style>
  <g transform="translate(1,1)">
    <path d="M10 3a5 5 0 0 0-5 5v6a5 5 0 0 0 5 5h2a5 5 0 0 0 5-5V8a5 5 0 0 0-5-5zm0 1h2a4 4 0 0 1 4 4v6a4 4 0 0 1-4 4h-2a4 4 0 0 1-4-4V8a4 4 0 0 1 4-4zm0 1v5h2V5z" fill="currentColor" class="ColorScheme-Text"/>
  </g>
</svg>
